<svg height="512" viewBox="0 0 128 128" width="512" xmlns="http://www.w3.org/2000/svg"><g id="Circle_Grid" data-name="Circle Grid"><circle cx="64" cy="64" fill="#ef5261" r="64"/></g><g id="icon" fill="#eeefee"><path d="m79.133 49v6.673h-4.37v.007l-.329-.007h-20.854l-.322.007v-.007h-4.391v-6.673a6.458 6.458 0 0 1 1.509-3.4.718.718 0 0 1 .1-.114 6.1 6.1 0 0 1 2.424-1.647c2.067-.765 5.021-1.759 6.5-2.26.415-.136.694-.229.822-.272v-1.1a7.18 7.18 0 0 1 -1.051-1.058c-.694-.472-1.094-2.053-1.266-2.9-1.309-.043-2.038-2.66-1.6-3.454a.6.6 0 0 1 .336-.293 11.369 11.369 0 0 1 -.458-4.448 7.939 7.939 0 0 1 1.817-4.419.659.659 0 0 1 .722-.186h.014a.7.7 0 0 0 .73-.114 7.632 7.632 0 0 1 3.841-1.924 9.087 9.087 0 0 1 6.029 1.623c1.509 1.2 2.074 2.746 2.453 5.014a11.31 11.31 0 0 1 -.458 4.434.646.646 0 0 1 .379.308c.436.794-.293 3.411-1.6 3.454-.164.851-.565 2.432-1.266 2.9a7.382 7.382 0 0 1 -1.066 1.073v1.066a.022.022 0 0 1 .014.007c.029.007.086.029.186.064a.544.544 0 0 1 .129.043c.129.043.3.1.508.172 1.452.486 4.4 1.495 6.487 2.267a6.222 6.222 0 0 1 2.439 1.645.431.431 0 0 0 .057.057.193.193 0 0 1 .05.057 6.224 6.224 0 0 1 1.485 3.405z"/><path d="m53.267 89.967v6.673h-4.367v.007l-.329-.007h-20.858l-.322.007v-.007h-4.391v-6.673a6.458 6.458 0 0 1 1.509-3.4.718.718 0 0 1 .1-.114 6.1 6.1 0 0 1 2.425-1.653c2.067-.765 5.021-1.759 6.5-2.26.415-.136.694-.229.822-.272v-1.1a7.18 7.18 0 0 1 -1.051-1.058c-.694-.472-1.094-2.053-1.266-2.9-1.309-.043-2.038-2.66-1.6-3.454a.6.6 0 0 1 .336-.293 11.369 11.369 0 0 1 -.458-4.448 7.939 7.939 0 0 1 1.816-4.415.659.659 0 0 1 .722-.186h.014a.7.7 0 0 0 .73-.114 7.632 7.632 0 0 1 3.841-1.924 7.906 7.906 0 0 1 3.39.343 7.853 7.853 0 0 1 2.639 1.281c1.509 1.2 2.074 2.746 2.453 5.014a11.31 11.31 0 0 1 -.458 4.434.646.646 0 0 1 .379.308c.436.794-.293 3.411-1.6 3.454-.164.851-.565 2.432-1.266 2.9a7.382 7.382 0 0 1 -1.066 1.073v1.067a.022.022 0 0 1 .014.007c.029.007.086.029.186.064a.544.544 0 0 1 .129.043c.129.043.3.1.508.172 1.452.486 4.4 1.495 6.487 2.267a6.222 6.222 0 0 1 2.439 1.645.431.431 0 0 0 .057.057.193.193 0 0 1 .05.057 6.224 6.224 0 0 1 1.486 3.405z"/><path d="m105 89.967v6.673h-4.37v.007l-.329-.007h-20.855l-.322.007v-.007h-4.391v-6.673a6.458 6.458 0 0 1 1.509-3.4.718.718 0 0 1 .1-.114 6.1 6.1 0 0 1 2.425-1.653c2.067-.765 5.021-1.759 6.5-2.26.415-.136.694-.229.822-.272v-1.1a7.18 7.18 0 0 1 -1.051-1.058c-.694-.472-1.094-2.053-1.266-2.9-1.309-.043-2.038-2.66-1.6-3.454a.6.6 0 0 1 .336-.293 11.369 11.369 0 0 1 -.458-4.448 7.939 7.939 0 0 1 1.816-4.415.659.659 0 0 1 .722-.186h.012a.7.7 0 0 0 .73-.114 7.632 7.632 0 0 1 3.841-1.924 9.087 9.087 0 0 1 6.029 1.624c1.509 1.2 2.074 2.746 2.453 5.014a11.31 11.31 0 0 1 -.458 4.434.646.646 0 0 1 .379.308c.436.794-.293 3.411-1.6 3.454-.164.851-.565 2.432-1.266 2.9a7.382 7.382 0 0 1 -1.066 1.073v1.067a.022.022 0 0 1 .014.007c.029.007.086.029.186.064a.544.544 0 0 1 .129.043c.129.043.3.1.508.172 1.452.486 4.4 1.495 6.487 2.267a6.222 6.222 0 0 1 2.439 1.645.431.431 0 0 0 .057.057.193.193 0 0 1 .05.057 6.224 6.224 0 0 1 1.488 3.405z"/><path d="m50.624 73.763h14.461v3.82h-14.461z" transform="matrix(.85 -.527 .527 .85 -31.184 41.824)"/><path d="m75.284 81.106-12.29-7.619a1.911 1.911 0 0 1 -.9-1.624v-12.522h3.816v11.459l11.39 7.059z"/></g></svg>